# xmcd
#
# Track frame offsets: 
#        150
#        18600
#        40585
#        60900
#        85392
#        108997
#        129877
#        155105
#        181612
#
# Disc length: 2695 seconds
#
# Revision: 0
# Processed by: cddbd v1.5.2PL0 Copyright (c) Steve Scherf et al.
# Submitted via: ExactAudioCopy v0.99pb5
#
DISCID=640a8509
DTITLE=Slam Allen and the Workin' Man's Band - ...Still Workin'
DYEAR=2000
DGENRE=Blues
TTITLE0=Everybody Needs Some Love
TTITLE1=I'll Be Waiting For Your Love
TTITLE2=How Can I Love You Baby
TTITLE3=Find The Strength In Your Tears
TTITLE4=Don't Make Your Move Too Soon
TTITLE5=A Little Rain
TTITLE6=Easy
TTITLE7=Must Be The Rain
TTITLE8=Let The Good Times Roll
EXTD=
EXTT0=
EXTT1=
EXTT2=
EXTT3=
EXTT4=
EXTT5=
EXTT6=
EXTT7=
EXTT8=
PLAYORDER=
